<svg width="21" height="21" viewBox="0 0 21 21" fill="none" xmlns="http://www.w3.org/2000/svg">
<g id="Frame">
<g id="SVGRepo_iconCarrier">
<path id="Vector" d="M18.6499 10.5854C18.6499 12.1973 18.1719 13.773 17.2764 15.1132C16.3808 16.4535 15.108 17.498 13.6188 18.1149C12.1296 18.7317 10.491 18.8931 8.91004 18.5787C7.32913 18.2642 5.87696 17.488 4.73718 16.3482C3.59741 15.2084 2.82121 13.7563 2.50674 12.1754C2.19228 10.5944 2.35367 8.95578 2.97052 7.46659C3.58736 5.9774 4.63195 4.70456 5.97218 3.80905C7.31242 2.91353 8.88811 2.43555 10.5 2.43555C11.5703 2.43541 12.6301 2.64612 13.619 3.05564C14.6078 3.46516 15.5063 4.06547 16.2631 4.82228C17.0199 5.57909 17.6202 6.47758 18.0298 7.46643C18.4393 8.45527 18.65 9.51511 18.6499 10.5854ZM11.6457 10.5957L14.7669 7.47349C14.9173 7.32007 15.001 7.11352 14.9999 6.89872C14.9988 6.68392 14.913 6.47823 14.7611 6.32634C14.6092 6.17445 14.4035 6.08864 14.1887 6.08756C13.9739 6.08647 13.7674 6.1702 13.614 6.32055L10.4938 9.44275L7.37059 6.32055C7.21717 6.1702 7.01062 6.08647 6.79582 6.08756C6.58102 6.08864 6.37533 6.17445 6.22344 6.32634C6.07155 6.47823 5.98574 6.68392 5.98466 6.89872C5.98357 7.11352 6.0673 7.32007 6.21765 7.47349L9.34088 10.5957L6.21868 13.7179C6.07379 13.8724 5.9947 14.0771 5.99813 14.2889C6.00157 14.5006 6.08726 14.7027 6.23708 14.8524C6.38689 15.0021 6.58907 15.0876 6.80083 15.0909C7.01258 15.0941 7.21729 15.0148 7.37162 14.8698L10.4928 11.7476L13.615 14.8698C13.7684 15.0202 13.975 15.1039 14.1898 15.1028C14.4046 15.1017 14.6103 15.0159 14.7621 14.864C14.914 14.7121 14.9998 14.5064 15.0009 14.2916C15.002 14.0768 14.9183 13.8703 14.7679 13.7169L11.6457 10.5957Z" fill="#AAAAAA"/>
</g>
</g>
</svg>
