<svg width="18" height="18" viewBox="0 0 18 18" fill="none" xmlns="http://www.w3.org/2000/svg">
<g id="Frame" clip-path="url(#clip0_2_23)">
<g id="SVGRepo_iconCarrier">
<path id="Vector" d="M15.9599 4.79998L8.80493 11.9549C8.09243 12.6674 5.9774 12.9974 5.5049 12.5249C5.0324 12.0524 5.3549 9.93744 6.0674 9.22494L13.2299 2.06245C13.4066 1.86975 13.6204 1.71484 13.8586 1.60707C14.0967 1.49929 14.3543 1.44087 14.6156 1.43536C14.8769 1.42987 15.1367 1.47737 15.3792 1.57503C15.6217 1.67269 15.8419 1.81849 16.0265 2.00359C16.211 2.18869 16.3562 2.40926 16.4532 2.65201C16.5502 2.89476 16.5971 3.15463 16.5908 3.41597C16.5846 3.67731 16.5254 3.9347 16.4171 4.17256C16.3086 4.41043 16.1531 4.62387 15.9599 4.79998Z" stroke="#AAAAAA" stroke-width="1.2" stroke-linecap="round" stroke-linejoin="round"/>
<path id="Vector_2" d="M8.25 3H4.5C3.70435 3 2.94133 3.31606 2.37872 3.87868C1.81612 4.44129 1.5 5.20435 1.5 6V13.5C1.5 14.2957 1.81612 15.0587 2.37872 15.6213C2.94133 16.1839 3.70435 16.5 4.5 16.5H12.75C14.4075 16.5 15 15.15 15 13.5V9.75" stroke="#AAAAAA" stroke-width="1.2" stroke-linecap="round" stroke-linejoin="round"/>
</g>
</g>
<defs>
<clipPath id="clip0_2_23">
<rect width="18" height="18" fill="white"/>
</clipPath>
</defs>
</svg>
